<svg xmlns="http://www.w3.org/2000/svg" viewBox="0 0 64 64" role="img" aria-label="ClawGauge">
  <defs>
    <linearGradient id="g" x1="10" y1="8" x2="54" y2="56" gradientUnits="userSpaceOnUse">
      <stop offset="0" stop-color="#44d5ff"/>
      <stop offset="0.55" stop-color="#2f8bff"/>
      <stop offset="1" stop-color="#0e61f4"/>
    </linearGradient>
    <filter id="s" x="-40%" y="-40%" width="180%" height="180%">
      <feGaussianBlur stdDeviation="1.8" result="b"/>
      <feMerge>
        <feMergeNode in="b"/>
        <feMergeNode in="SourceGraphic"/>
      </feMerge>
    </filter>
  </defs>
  <rect width="64" height="64" rx="16" fill="#06101f"/>
  <circle cx="31.5" cy="31.5" r="22" fill="none" stroke="url(#g)" stroke-width="4.5"/>
  <path d="M17 40c3.5 1.5 6.2 3 10 3.5 6.2.9 9.8-1.2 15-6.1" fill="none" stroke="#dcecff" stroke-width="2.8" stroke-linecap="round" opacity="0.95"/>
  <path d="M26 45c-5.5-3.7-8.2-8.8-8.2-15.1 0-8.6 5.8-15 13.8-15 2.1 0 4.1.4 5.9 1.2" fill="none" stroke="#dcecff" stroke-width="2.8" stroke-linecap="round" opacity="0.72"/>
  <path d="M31 31l16-12" fill="none" stroke="url(#g)" stroke-width="4" stroke-linecap="round" filter="url(#s)"/>
  <circle cx="31" cy="31" r="3.6" fill="url(#g)"/>
  <path d="M42 20l6-1-3 5" fill="none" stroke="url(#g)" stroke-width="3" stroke-linecap="round" stroke-linejoin="round"/>
</svg>
